# xmcd
#
# Track frame offsets:
#	150
#	15584
#	32310
#	52715
#	79237
#	97830
#	116655
#	143425
#	159399
#	183022
#	192396
#
# Disc length: 2773 seconds
#
# Revision: 0
# Processed by: cddbd v1.5.2PL0 Copyright (c) Steve Scherf et al.
# Submitted via: dBpowerAMP V4.0
#
DISCID=720ad30b
DTITLE=Manifest Destiny - Within
DYEAR=2001
DGENRE=Heavy Metal
TTITLE0=Storm Is Forming
TTITLE1=Dethroned
TTITLE2=Empty God
TTITLE3=Lost Again
TTITLE4=Winter Within
TTITLE5=Morbid Conscious
TTITLE6=As I Am
TTITLE7=Let Them Drown
TTITLE8=Flowing Over Free
TTITLE9=Broken
TTITLE10=Second Coming
EXTD=
EXTT0=
EXTT1=
EXTT2=
EXTT3=
EXTT4=
EXTT5=
EXTT6=
EXTT7=
EXTT8=
EXTT9=
EXTT10=
PLAYORDER=
